<svg xmlns="http://www.w3.org/2000/svg" viewBox="0 0 72 72" width="72" height="72">
  <!-- Sparkle effects -->
  <polygon points="8,14 10,18 14,18 11,21 12,25 8,22 4,25 5,21 2,18 6,18" fill="#C4B5FD" opacity="0.8"/>
  <polygon points="58,8 59.5,11 63,11 60.5,13 61.5,16 58,14 54.5,16 55.5,13 53,11 56.5,11" fill="#C4B5FD" opacity="0.6"/>
  <polygon points="62,30 63,32 65,32 63.5,33.5 64,36 62,34.5 60,36 60.5,33.5 59,32 61,32" fill="#C4B5FD" opacity="0.7"/>
  <!-- Body -->
  <path d="M20 22 C20 11, 46 11, 46 22 L46 44 C46 48, 44 50, 40 50 L38 50 L38 56 L42 56 L42 62 L38 62 L38 56 L34 56 L34 62 L30 62 L30 56 L34 56 L34 50 L32 50 C28 50, 20 48, 20 44 Z" fill="#8B5CF6"/>
  <!-- Backpack -->
  <path d="M15 24 C13 24, 13 26, 13 28 L13 40 C13 42, 15 44, 17 44 L20 44 L20 24 Z" fill="#7340DC"/>
  <!-- Visor -->
  <ellipse cx="40" cy="28" rx="10" ry="9" fill="#C4E4FF"/>
  <ellipse cx="40" cy="28" rx="10" ry="9" fill="none" stroke="#8BB8E0" stroke-width="0.5"/>
  <ellipse cx="42" cy="26" rx="3" ry="2" fill="white" opacity="0.6"/>
  <!-- Crown -->
  <polygon points="24,18 27,10 30,16 33,8 36,16 39,10 42,18" fill="#FFD700" stroke="#D4A800" stroke-width="0.8"/>
  <circle cx="27" cy="11" r="1.5" fill="#FF6B6B"/>
  <circle cx="33" cy="9" r="1.5" fill="#4FC3F7"/>
  <circle cx="39" cy="11" r="1.5" fill="#81C784"/>
  <!-- Mini pet companion (baby dragon) -->
  <ellipse cx="58" cy="54" rx="5" ry="4" fill="#A78BFA"/>
  <ellipse cx="60" cy="52.5" rx="2" ry="1.5" fill="#C4E4FF"/>
  <circle cx="60.5" cy="52" r="0.5" fill="white" opacity="0.6"/>
  <path d="M55 51 L54 47 L56 50" fill="#A78BFA"/>
  <path d="M60 51 L61 47 L62 50" fill="#A78BFA"/>
  <path d="M53 54 C51 52, 50 54, 52 56" fill="#C4B5FD" stroke="#A78BFA" stroke-width="0.5"/>
  <ellipse cx="57" cy="58" rx="1.5" ry="1" fill="#7340DC"/>
  <ellipse cx="60" cy="58" rx="1.5" ry="1" fill="#7340DC"/>
  <!-- Dragon fire breath from pet -->
  <path d="M63 52 C65 50, 67 51, 66 53 C68 52, 69 54, 67 55" fill="#FF6B6B" opacity="0.6"/>
  <path d="M64 51.5 C65.5 50.5, 66.5 51.5, 65.5 52.5" fill="#FFD700" opacity="0.7"/>
  <!-- Body outline -->
  <path d="M20 22 C20 11, 46 11, 46 22 L46 44 C46 48, 44 50, 40 50 L38 50 L38 56 L42 56 L42 62 L38 62 L38 56 L34 56 L34 62 L30 62 L30 56 L34 56 L34 50 L32 50 C28 50, 20 48, 20 44 Z" fill="none" stroke="#6B3FC4" stroke-width="1"/>
</svg>