<svg xmlns="http://www.w3.org/2000/svg" viewBox="0 0 64 64" width="64" height="64">
  <!-- Body -->
  <path d="M18 20 C18 10, 42 10, 42 20 L42 40 C42 44, 40 46, 36 46 L34 46 L34 52 L38 52 L38 58 L34 58 L34 52 L30 52 L30 58 L26 58 L26 52 L30 52 L30 46 L28 46 C24 46, 18 44, 18 40 Z" fill="#8B5CF6"/>
  <!-- Backpack -->
  <path d="M13 22 C11 22, 11 24, 11 26 L11 36 C11 38, 13 40, 15 40 L18 40 L18 22 Z" fill="#7340DC"/>
  <!-- Visor -->
  <ellipse cx="36" cy="26" rx="9" ry="8" fill="#C4E4FF"/>
  <ellipse cx="36" cy="26" rx="9" ry="8" fill="none" stroke="#8BB8E0" stroke-width="0.5"/>
  <ellipse cx="38" cy="24" rx="3" ry="2" fill="white" opacity="0.6"/>
  <!-- Wizard hat -->
  <polygon points="30,1 22,16 38,16" fill="#7340DC"/>
  <rect x="21" y="14" width="18" height="3" rx="1.5" fill="#8B5CF6"/>
  <circle cx="30" cy="3" r="2" fill="#C4B5FD"/>
  <polygon points="30,7 31,9 33,9 31.5,10.5 32,12.5 30,11 28,12.5 28.5,10.5 27,9 29,9" fill="#C4B5FD" opacity="0.8"/>
  <!-- Mini pet companion (baby dragon) -->
  <ellipse cx="54" cy="50" rx="5" ry="4" fill="#A78BFA"/>
  <ellipse cx="56" cy="48.5" rx="2" ry="1.5" fill="#C4E4FF"/>
  <circle cx="56.5" cy="48" r="0.5" fill="white" opacity="0.6"/>
  <!-- Dragon horns on pet -->
  <path d="M51 47 L50 43 L52 46" fill="#A78BFA"/>
  <path d="M56 47 L57 43 L58 46" fill="#A78BFA"/>
  <!-- Dragon wings on pet -->
  <path d="M49 50 C47 48, 46 50, 48 52" fill="#C4B5FD" stroke="#A78BFA" stroke-width="0.5"/>
  <!-- Pet legs -->
  <ellipse cx="53" cy="54" rx="1.5" ry="1" fill="#7340DC"/>
  <ellipse cx="56" cy="54" rx="1.5" ry="1" fill="#7340DC"/>
  <!-- Body outline -->
  <path d="M18 20 C18 10, 42 10, 42 20 L42 40 C42 44, 40 46, 36 46 L34 46 L34 52 L38 52 L38 58 L34 58 L34 52 L30 52 L30 58 L26 58 L26 52 L30 52 L30 46 L28 46 C24 46, 18 44, 18 40 Z" fill="none" stroke="#6B3FC4" stroke-width="1"/>
</svg>