<svg xmlns="http://www.w3.org/2000/svg" viewBox="0 0 48 48" width="48" height="48">
  <!-- Body -->
  <path d="M14 16 C14 8, 34 8, 34 16 L34 32 C34 36, 32 38, 28 38 L26 38 L26 42 L30 42 L30 46 L26 46 L26 42 L22 42 L22 46 L18 46 L18 42 L22 42 L22 38 L20 38 C16 38, 14 36, 14 32 Z" fill="#FF8C00"/>
  <!-- Backpack -->
  <path d="M10 18 C8 18, 8 20, 8 22 L8 28 C8 30, 10 32, 12 32 L14 32 L14 18 Z" fill="#E07800"/>
  <!-- Visor -->
  <ellipse cx="28" cy="20" rx="7" ry="6" fill="#C4E4FF"/>
  <ellipse cx="28" cy="20" rx="7" ry="6" fill="none" stroke="#8BB8E0" stroke-width="0.5"/>
  <ellipse cx="30" cy="18" rx="2" ry="1.5" fill="white" opacity="0.6"/>
  <!-- Body outline -->
  <path d="M14 16 C14 8, 34 8, 34 16 L34 32 C34 36, 32 38, 28 38 L26 38 L26 42 L30 42 L30 46 L26 46 L26 42 L22 42 L22 46 L18 46 L18 42 L22 42 L22 38 L20 38 C16 38, 14 36, 14 32 Z" fill="none" stroke="#C46A00" stroke-width="1"/>
</svg>